<svg width="990" height="622" xmlns="http://www.w3.org/2000/svg" xmlns:xlink="http://www.w3.org/1999/xlink" overflow="hidden"><defs><clipPath id="clip0"><path d="M145-1 1135-1 1135 621 145 621Z" fill-rule="evenodd" clip-rule="evenodd"/></clipPath><clipPath id="clip1"><path d="M146 0 1134 0 1134 621 146 621Z" fill-rule="evenodd" clip-rule="evenodd"/></clipPath><clipPath id="clip2"><path d="M146 0 1134 0 1134 621 146 621Z" fill-rule="evenodd" clip-rule="evenodd"/></clipPath><clipPath id="clip3"><path d="M146 0 1134 0 1134 721 146 721Z" fill-rule="evenodd" clip-rule="evenodd"/></clipPath></defs><g clip-path="url(#clip0)" transform="translate(-145 1)"><g clip-path="url(#clip1)"><g clip-path="url(#clip2)"><g clip-path="url(#clip3)"><path d="M235.422 718.23C208.02 712.595 189.958 692.603 187.797 665.511L187.334 659.567 183.166 656.48C174.444 650.073 166.571 638.263 162.711 625.991 161.167 620.973 160.936 618.581 160.936 608.623 160.936 594.961 162.402 588.4 167.96 576.591 178.612 554.052 196.982 534.678 214.658 527.345 220.448 524.952 231.794 522.791 234.727 523.563 236.117 523.949 236.271 523.717 235.885 522.173 235.653 521.17 235.19 519.858 234.959 519.163 234.573 518.16 234.882 518.005 236.811 518.391 239.667 518.932 239.436 520.012 241.134 498.168 241.288 496.47 241.597 493.383 241.906 491.221 242.137 489.137 242.523 485.201 242.755 482.422 242.986 479.643 243.295 476.556 243.527 475.475 243.681 474.394 244.067 470.998 244.298 467.833 245.148 456.178 248.853 438.348 253.792 422.216 261.28 397.979 267.069 384.934 277.18 369.96 280.113 365.56 282.506 361.932 282.506 361.778 282.506 361.546 279.805 361.238 276.563 360.929 260.817 359.539 245.688 355.063 230.327 347.344 190.113 327.121 163.792 290.071 157.154 244.607 156.459 240.053 155.919 234.11 155.919 231.254L155.919 226.159 159.624 226.159C161.631 226.159 163.715 225.851 164.255 225.542 164.795 225.156 165.336 222.995 165.49 220.602 168.037 188.26 185.096 155.07 209.41 135.232 247.926 103.74 298.561 97.4106 342.327 118.483 368.03 130.833 388.562 151.442 400.526 176.837 404.308 184.864 408.631 196.828 409.557 202 410.02 204.547 410.174 204.701 412.413 204.238 415.578 203.621 416.041 203.08 416.89 199.144 420.363 183.706 436.495 171.819 452.164 173.054L456.333 173.44 458.262 169.118C459.806 165.644 464.669 152.368 464.669 151.596 464.669 151.442 463.742 151.288 462.585 151.133 459.729 150.824 457.027 145.344 456.95 139.941L456.95 135.85 469.3 135.85 481.65 135.85 482.962 137.934C483.888 139.246 484.429 141.948 484.583 145.653L484.892 151.288 480.955 151.288C477.25 151.288 477.019 151.442 475.552 154.143 474.78 155.764 472.542 161.631 470.612 167.188L467.062 177.377 470.921 179.77C475.321 182.703 480.106 189.032 482.576 195.207 483.888 198.681 484.274 201.151 484.274 207.634 484.274 216.434 482.808 221.528 478.794 226.777L476.864 229.324 483.734 237.12C492.379 247.154 522.173 280.191 542.242 302.189 563.314 325.268 585.467 349.891 594.344 360.003L601.677 368.416 603.066 365.174C603.838 363.476 605.768 357.841 607.388 352.67L610.399 343.407 605.304 340.088C585.93 327.661 568.023 307.206 558.143 286.366 553.126 275.714 549.266 263.209 547.259 251.091 545.793 242.523 545.638 239.204 545.947 226.545 546.179 218.518 546.565 211.108 546.873 210.182 547.337 208.715 547.877 208.483 551.659 208.638L555.982 208.792 558.066 200.224C570.724 149.281 614.335 111.768 666.9 106.673 724.173 101.193 778.59 137.471 796.112 192.892 810.083 237.12 797.347 286.597 763.693 318.862 757.75 324.496 747.561 332.292 741.772 335.534 739.611 336.692 737.913 338.004 737.913 338.313 737.913 338.622 738.607 340.32 739.533 342.018 740.383 343.793 740.923 345.568 740.768 346.109 740.228 347.421 725.099 353.75 716.686 356.22 707.964 358.69 700.013 360.08 687.586 361.238 679.25 362.087 676.163 362.009 666.128 360.852 655.245 359.617 642.586 357.147 637.26 355.063 636.025 354.599 634.713 354.522 634.327 354.908 633.092 356.143 628.461 373.973 629.387 374.128 629.85 374.205 644.824 374.437 662.655 374.668 687.2 374.9 696.54 375.286 701.171 376.212 704.49 376.829 707.346 377.524 707.501 377.678 707.655 377.833 707.964 379.685 708.195 381.769 708.813 387.79 709.353 391.727 711.36 404.462 713.753 418.974 717.844 446.838 717.921 448.459 717.998 449.849 719.31 458.957 719.851 461.427 720.005 462.43 720.777 463.125 721.549 463.125 724.791 463.125 726.257 468.297 723.247 469.068 721.394 469.532 721.317 470.303 722.938 471.693 725.177 473.545 725.64 476.015 724.328 479.566 723.633 481.341 722.784 484.506 722.475 486.513 721.394 492.302 719.233 494 712.441 494.54 710.511 494.695 707.809 494.849 706.42 495.003L703.796 495.158 706.42 497.319C710.279 500.638 711.977 501.101 715.297 499.712 719.31 498.014 723.093 498.786 731.197 503.108 740.923 508.203 742.775 511.058 739.456 515.998 738.607 517.311 737.141 519.472 736.292 520.861 735.211 522.482 734.053 523.331 732.818 523.331 731.815 523.331 730.966 523.023 730.966 522.559 730.966 522.173 731.506 521.787 732.123 521.787 732.741 521.787 733.281 521.402 733.281 521.016 733.281 520.552 731.969 520.244 730.425 520.321 728.804 520.398 726.026 520.244 724.328 519.858 722.321 519.549 720.931 519.626 720.622 520.089 720.314 520.63 721.78 521.093 724.405 521.402 727.724 521.865 728.65 522.251 728.65 523.331 728.65 525.647 726.643 526.573 722.475 526.264 719.773 526.11 718.616 526.342 718.616 526.959 718.616 529.043 706.343 520.012 698.547 512.139 694.147 507.662 690.211 504.034 689.902 504.034 689.516 504.034 689.284 505.115 689.284 506.35 689.284 507.739 688.898 508.666 688.281 508.666 687.278 508.666 684.653 511.136 683.65 512.988 683.032 514.069 697.158 526.419 699.087 526.419 701.789 526.496 706.729 529.275 711.206 533.443 717.381 539.078 719.388 544.172 715.451 544.172 714.602 544.172 713.984 544.712 713.984 545.561 713.984 547.568 709.276 552.277 708.504 551.042 708.041 550.27 707.501 550.27 705.88 550.964 702.483 552.508 701.094 552.045 697.621 548.031 695.768 545.947 693.993 544.172 693.684 544.172 693.298 544.172 694.379 545.793 696.077 547.723 699.087 551.119 700.013 554.206 698.007 554.206 697.466 554.206 697.003 554.747 697.003 555.364 697.003 557.217 693.993 556.753 693.221 554.747 692.372 552.585 687.972 545.947 686.892 545.33 684.962 544.095 684.036 540.621 684.807 537.611 685.579 534.601 685.502 534.446 681.952 530.664L678.324 526.805 678.941 531.822C680.022 540.776 679.79 545.33 678.092 547.259 675.931 549.729 671.763 551.273 669.216 550.733 667.903 550.424 666.128 550.733 664.739 551.427 662.114 552.74 657.252 552.354 655.245 550.578 654.241 549.729 652.775 549.575 649.301 550.038 645.21 550.501 644.516 550.347 643.049 548.88 641.119 546.951 641.042 545.793 642.509 537.611 643.975 529.429 646.754 522.019 650.15 517.002 651.54 514.918 651.54 514.841 648.375 505.81 646.677 500.793 645.288 495.853 645.288 494.926 645.288 494 644.979 493.228 644.516 493.228 643.512 493.228 643.512 496.007 644.438 497.782 645.288 499.249 644.67 500.561 642.972 501.101 642.2 501.333 641.891 502.336 642.123 504.652 642.277 507.431 642.046 507.971 640.425 508.743 638.958 509.438 638.109 509.36 636.72 508.511 635.716 507.971 633.478 507.508 631.78 507.508L628.692 507.508 628.692 513.683C628.692 518.391 628.383 520.475 627.303 522.019 625.45 524.875 623.829 525.415 622.517 523.64 621.591 522.405 621.205 522.328 619.893 523.177 617.654 524.489 617.654 524.489 618.349 520.861 618.658 519.009 618.967 517.311 619.044 517.002 619.044 516.076 613.795 516.307 613.255 517.156 612.946 517.619 613.177 518.546 613.718 519.163 614.49 520.089 614.335 520.475 613.177 521.402 612.406 522.019 611.479 522.559 611.248 522.559 610.244 522.559 608.16 516.23 608.623 514.686 609.241 512.834 607.774 510.981 605.536 510.981L603.838 510.981 604.996 516.384C606.231 522.096 605.999 523.408 603.915 521.71 602.989 520.938 602.757 519.858 603.066 517.465 603.22 515.612 603.066 513.837 602.603 513.374 601.985 512.757 602.063 511.367 602.757 508.588 603.297 506.504 603.529 504.497 603.297 504.189 602.989 503.957 601.368 505.347 599.67 507.353 597.122 510.287 595.656 511.213 591.488 512.525 588.709 513.374 585.236 514.763 583.923 515.612 580.759 517.542 580.141 517.542 580.682 515.535 581.068 514.069 580.913 513.992 575.587 514.609 567.328 515.535 536.53 515.072 533.906 513.992 529.815 512.293 528.194 505.887 530.973 502.413 532.362 500.638 532.671 500.638 544.635 500.87 558.529 501.101 561.539 501.256 569.412 502.105 573.426 502.491 575.356 502.413 576.128 501.719 576.899 501.101 578.675 501.024 581.531 501.333 583.923 501.642 585.853 501.564 585.853 501.256 585.853 500.87 585.544 498.554 585.081 496.084 584.387 491.839 584.001 491.144 576.591 483.117 569.875 475.861 568.872 474.394 568.872 472.002 568.872 470.535 571.265 462.122 574.198 453.322 577.208 444.523 579.755 435.878 579.91 434.18 580.141 432.482 580.527 430.552 580.759 429.857 581.145 429.008 578.366 423.296 572.5 412.876 567.637 404.231 558.76 387.944 552.663 376.675 535.064 343.948 531.899 338.93 519.858 325.114 504.575 307.361 492.997 298.253 471.307 286.443 462.276 281.503 436.65 269.384 435.337 269.384 434.952 269.384 433.253 273.089 431.478 277.721 425.689 292.618 410.483 334.376 407.782 343.098 405.157 351.203 401.838 358.845 400.603 359.694 400.063 360.08 390.106 385.938 383.313 404.771L380.612 412.181 384.239 414.034C395.354 419.591 409.325 423.837 419.9 424.917 426.77 425.612 427.31 425.843 428.391 428.391 430.243 432.945 427.078 438.734 421.598 440.972 417.893 442.439 407.627 442.747 398.673 441.667 388.485 440.355 381.461 440.509 370.963 442.362 364.248 443.597 358.15 444.06 349.196 444.137L336.692 444.214 336.229 447.688C333.836 466.907 330.748 482.653 324.11 510.981 321.1 523.486 318.013 537.843 317.163 542.937 315.388 553.048 315.774 554.592 319.093 552.354 321.486 550.81 321.64 551.736 319.556 555.75 318.707 557.448 318.013 558.915 318.013 558.992 318.013 559.146 321.254 559.223 325.191 559.301 333.99 559.378 340.242 560.922 349.351 565.476 362.781 572.191 378.45 585.776 389.257 600.21 395.046 607.929 402.224 621.668 404.077 628.692 406.006 635.871 406.392 647.68 404.926 654.473 400.063 677.398 378.991 696.308 353.982 700.168 338.004 702.638 319.093 696.154 306.357 683.804 302.652 680.176 300.259 679.404 300.259 681.72 300.259 683.958 294.856 693.838 291.074 698.547 282.429 709.276 272.395 715.451 258.887 718.23 252.094 719.619 242.292 719.619 235.422 718.23ZM293.544 582.071C296.709 575.51 303.038 567.946 308.441 564.163 312.146 561.616 312.687 560.15 310.294 558.838 308.21 557.757 308.364 556.753 310.68 556.213 311.837 555.904 312.764 555.055 312.918 553.975 313.15 553.048 314.23 547.414 315.311 541.47 316.469 535.527 319.788 520.398 322.721 507.894 327.815 486.358 333.064 458.262 333.99 447.996 334.376 443.442 334.299 443.288 331.675 441.281 328.51 438.888 325.731 433.562 325.731 430.012 325.731 426.538 327.429 423.682 331.598 419.977L335.225 416.813 333.604 408.322C330.208 391.032 326.503 383.699 315.774 372.584 307.978 364.479 301.957 360.003 300.8 361.16 300.337 361.623 301.803 364.865 304.659 369.883 311.374 381.383 314.693 388.176 317.395 396.203 319.479 402.378 319.788 404.694 320.097 413.725 320.483 424.917 320.251 426.538 315.851 443.056 313.15 453.013 310.603 467.833 307.592 490.141 305.122 508.743 302.575 521.402 299.256 532.285 291.769 556.367 290.071 561.462 287.523 567.405 286.057 570.956 284.822 574.275 284.822 574.738 284.822 575.278 285.748 575.973 286.983 576.436L289.067 577.131 286.597 578.366C285.208 579.138 283.587 579.678 282.892 579.678 282.275 579.678 281.734 579.91 281.734 580.296 281.734 580.836 289.53 588.092 290.225 588.169 290.457 588.169 291.923 585.467 293.544 582.071ZM276.1 575.742C275.637 572.345 275.328 572.5 280.113 573.966 282.738 574.815 286.211 566.788 294.316 541.084 300.645 521.016 303.424 507.971 305.971 485.509 306.512 481.033 308.596 467.139 309.599 461.195 310.062 458.648 312.146 449.463 314.307 440.741L318.244 424.917 317.858 413.725C317.472 404.385 317.086 401.529 315.388 396.512 313.15 389.874 306.975 377.215 301.263 367.798L297.558 361.623 291.383 361.623 285.208 361.623 279.264 370.5C270.774 383.082 264.213 396.821 258.655 413.725 252.403 432.945 248.775 448.073 247.386 460.423 247.154 462.585 246.846 465.363 246.614 466.598 246.383 467.911 246.074 471.461 245.842 474.626 245.611 477.713 245.302 481.033 245.07 481.959 244.453 484.66 242.369 509.978 242.369 514.455 242.369 519.086 243.372 520.244 247.54 520.244 249.547 520.244 249.47 520.398 246.074 522.328 243.99 523.408 242.369 524.721 242.369 525.184 242.369 525.647 243.835 526.805 245.688 527.808 252.558 531.436 260.199 540.313 265.448 550.887 268.613 557.217 273.398 570.57 274.402 576.05 275.173 579.987 276.64 579.755 276.1 575.742ZM602.68 485.818C610.09 476.401 617.191 462.893 615.03 462.199 614.413 461.967 614.413 461.427 615.107 460.269 616.033 458.494 616.265 454.712 615.493 452.782 615.262 452.164 612.714 450.775 609.936 449.694 604.378 447.61 591.256 443.828 589.558 443.828 588.4 443.828 581.068 460.655 579.369 467.293 577.903 473.159 578.366 474.086 584.927 477.25 590.33 479.798 590.33 479.875 594.421 488.828 595.347 490.835 596.428 492.379 596.968 492.225 597.431 492.07 599.978 489.214 602.68 485.818ZM612.869 446.684C612.869 445.912 616.805 418.356 617.886 411.641 619.121 403.768 619.121 403.768 617.191 396.589 615.184 389.025 612.714 382.541 611.557 381.847 611.093 381.538 610.167 383.39 609.395 385.783 608.701 388.176 604.147 401.452 599.284 415.269 594.498 429.008 590.639 440.432 590.716 440.509 591.025 440.818 610.939 446.761 611.943 446.838 612.406 446.916 612.869 446.761 612.869 446.684ZM344.719 412.567C352.67 409.094 361.469 407.704 368.184 408.785 370.809 409.248 373.047 409.325 373.279 409.017 374.823 406.469 392.113 357.455 391.804 356.375 391.649 355.603 392.653 351.666 394.119 347.652 395.972 342.404 396.512 339.934 396.049 339.008 395.354 337.772 390.723 333.218 383.467 326.58L380.612 323.956 375.131 329.05C360.157 342.944 335.611 354.908 313.227 359.308L306.589 360.62 313.922 367.644C322.567 375.903 327.121 382.078 330.44 389.797 332.832 395.509 336.538 410.02 336.538 414.034 336.538 415.5 336.846 416.041 337.541 415.809 338.004 415.578 341.323 414.111 344.719 412.567ZM592.414 396.435 597.74 380.766 585.467 366.949C562.157 340.783 501.101 273.398 484.66 255.799 478.717 249.393 472.079 241.674 469.84 238.509L468.605 236.734 465.132 238.355C460.501 240.516 456.024 241.52 450.698 241.597L446.375 241.597 443.211 248.775C441.513 252.635 439.969 256.494 439.814 257.266 439.66 258.424 442.207 259.813 453.863 265.062 498.4 284.899 516.848 298.33 536.453 325.577 540.467 331.134 545.175 338.004 546.951 340.937 549.498 345.182 572.963 387.636 583.846 407.704 585.158 410.174 586.393 412.181 586.702 412.181 586.934 412.181 589.481 405.08 592.414 396.435ZM622.517 386.092C623.598 381.383 625.759 372.507 627.534 366.255 629.232 360.003 630.622 354.522 630.622 353.905 630.622 353.133 624.138 349.659 622.594 349.659 621.668 349.659 619.044 355.912 615.956 365.637L612.637 375.749 615.879 383.313C617.654 387.404 619.352 391.804 619.584 393.039 619.816 394.274 620.202 395.123 620.356 394.891 620.588 394.737 621.514 390.723 622.517 386.092ZM300.182 332.678C306.897 331.983 319.247 329.436 320.097 328.51 320.405 328.278 296.014 252.866 292.849 244.298 291.537 240.748 290.457 238.818 289.993 239.281 289.608 239.744 275.945 303.656 272.781 320.097 271.546 326.117 270.851 331.289 271.16 331.598 272.703 333.218 289.144 333.759 300.182 332.678ZM688.127 332.678C695.922 331.983 708.041 329.591 709.044 328.587 709.276 328.356 707.732 322.875 705.648 316.314 680.871 240.671 679.79 237.429 679.173 238.895 678.478 240.516 662.037 317.704 660.571 326.349 660.107 328.973 659.953 331.366 660.262 331.675 660.802 332.215 669.447 333.141 675.777 333.296 677.938 333.373 683.495 333.064 688.127 332.678ZM407.859 309.367C416.504 285.131 428.159 255.182 431.478 248.544L433.871 243.758 430.783 244.221C429.008 244.453 426.229 244.916 424.531 245.148 422.833 245.379 421.212 245.919 420.981 246.305 420.749 246.768 419.9 250.319 419.051 254.256 414.651 275.868 401.221 302.575 387.79 316.546L385.088 319.325 392.267 325.5C397.516 330.054 399.6 331.443 400.063 330.671 400.372 330.131 403.922 320.483 407.859 309.367ZM269.616 319.942C270.851 313.999 274.942 294.548 278.647 276.717 286.443 239.976 286.906 237.429 285.825 237.815 285.439 237.969 270.774 254.024 253.329 273.475L221.528 308.75 227.626 313.304C230.945 315.774 237.197 319.556 241.443 321.717 249.161 325.731 264.213 331.289 266.22 330.903 266.992 330.826 268.072 327.352 269.616 319.942ZM656.48 329.822C656.711 329.05 657.638 325.345 658.409 321.486 659.181 317.704 663.349 297.867 667.595 277.489 671.917 257.112 675.313 239.822 675.236 238.973 675.082 237.969 672.612 240.285 666.36 247.309 656.48 258.501 650.382 267.223 646.6 275.559 642.046 285.671 633.092 314.693 634.25 315.697 634.558 316.006 636.72 316.932 638.958 317.704 643.435 319.247 643.358 319.016 641.814 325.114 641.351 326.889 641.66 327.121 647.758 329.05 655.476 331.443 655.785 331.52 656.48 329.822ZM334.608 322.644C342.095 319.016 351.821 312.609 357.841 307.283L360.852 304.659 352.747 296.94C341.478 286.288 304.427 251.708 300.414 248.158 298.638 246.537 297.018 245.379 296.863 245.533 296.632 245.842 310.294 287.909 319.865 316.314 324.188 329.05 322.644 328.433 334.608 322.644ZM723.71 322.721C733.358 317.935 741.926 312.069 749.877 304.659L754.508 300.414 752.578 298.484C746.172 292.232 683.418 236.194 682.878 236.194 682.646 236.194 683.65 239.59 685.039 243.758 686.506 247.849 693.221 268.381 700.091 289.299 707.423 311.606 712.981 327.275 713.521 327.275 713.984 327.275 718.616 325.191 723.71 322.721ZM638.958 322.798C639.19 321.409 638.649 320.791 636.488 319.942 632.783 318.398 632.166 318.476 632.166 320.714 632.166 321.949 632.86 322.953 634.327 323.724 637.106 325.268 638.649 324.959 638.958 322.798ZM621.051 314.385C621.437 313.227 626.531 300.491 631.703 287.523L632.938 284.436 629.001 288.681C619.584 298.793 611.325 308.364 611.479 308.904 611.788 309.753 619.198 315.62 620.047 315.62 620.356 315.697 620.819 315.079 621.051 314.385ZM253.947 268.227C266.451 254.256 278.029 241.288 279.728 239.513 282.12 236.811 282.429 236.117 281.426 235.731 279.959 235.19 280.422 235.036 230.559 251.4L191.348 264.29 191.811 266.22C193.818 274.17 204.161 290.92 213.115 300.568L218.749 306.589 224.924 300.182C228.398 296.632 241.443 282.275 253.947 268.227ZM624.987 288.527C631.78 281.04 638.109 273.167 641.66 267.763 644.824 262.901 651.617 254.024 656.711 248.003 661.883 241.906 665.742 236.966 665.356 236.966 662.886 236.966 582.688 263.132 581.299 264.444 580.373 265.293 580.913 266.914 584.927 274.942 590.021 285.439 596.737 295.011 603.838 302.112L608.392 306.743 611.248 303.656C612.792 301.957 618.967 295.165 624.987 288.527ZM372.738 290.842C378.913 282.275 383.776 273.012 387.095 263.055 388.562 258.578 389.797 254.41 389.797 253.87 389.797 252.403 377.215 250.088 369.342 250.088 360.62 250.088 340.165 248.698 323.802 247 316.16 246.228 309.831 245.611 309.753 245.765 309.599 245.919 330.671 264.908 354.599 286.211 361.392 292.232 367.181 297.172 367.49 297.172 367.798 297.172 370.191 294.316 372.738 290.842ZM761.841 290.92C769.559 280.577 779.98 257.343 778.59 253.715 778.359 253.098 775.348 252.094 771.335 251.323 767.63 250.551 749.954 246.923 732.123 243.141 690.442 234.341 686.892 233.647 686.506 234.11 685.965 234.65 755.511 297.095 756.669 297.172 756.978 297.172 759.293 294.393 761.841 290.92ZM261.28 238.201C275.791 233.492 278.261 232.412 278.261 231.177 278.261 229.864 277.258 229.401 272.472 228.321 262.901 226.082 189.109 210.722 188.029 210.722 186.331 210.722 185.945 213.423 185.559 226.622 185.25 239.436 186.099 247.232 188.801 257.112L190.036 261.434 217.128 252.558C232.103 247.695 251.94 241.211 261.28 238.201ZM623.907 246.846C648.143 238.895 667.286 232.334 667.518 231.717 667.672 231.177 667.595 230.405 667.209 230.019 666.823 229.633 648.298 225.465 625.991 220.756 578.983 210.799 576.745 210.336 576.282 210.799 574.893 212.188 574.198 232.798 575.201 242.369 576.128 251.091 578.598 260.894 579.833 260.894 580.296 260.894 600.133 254.564 623.907 246.846ZM780.52 246.923C781.523 242.832 781.832 221.682 781.06 216.511 780.674 213.964 779.825 209.333 779.131 206.245L777.896 200.533 775.503 200.919C772.878 201.228 687.818 228.938 687.123 229.633 686.892 229.864 686.892 230.173 687.046 230.25 687.2 230.405 700.245 233.261 715.914 236.58 731.66 239.899 752.115 244.221 761.455 246.228 770.794 248.312 778.745 249.856 779.208 249.779 779.594 249.702 780.211 248.389 780.52 246.923ZM278.647 224.538C279.187 223.689 279.419 222.84 279.264 222.763 279.11 222.609 270.388 214.736 259.736 205.242 222.609 171.897 211.494 162.094 210.799 162.094 208.792 162.094 197.986 178.689 193.586 188.723 191.657 193.046 187.334 206.863 187.72 207.248 188.029 207.48 275.714 226.005 276.872 226.082 277.412 226.159 278.184 225.465 278.647 224.538ZM667.749 224.538C668.444 223.149 668.367 222.609 667.209 221.528 666.36 220.833 652.234 208.098 635.639 193.355 619.121 178.612 604.301 165.336 602.757 163.869L599.978 161.245 595.27 167.42C587.551 177.686 581.376 190.036 578.134 201.614L576.668 206.863 580.682 207.943C582.92 208.561 600.673 212.343 620.202 216.434 639.73 220.525 657.946 224.384 660.725 225.002 663.504 225.542 665.974 226.082 666.283 226.082 666.591 226.159 667.209 225.387 667.749 224.538ZM717.844 216.125C731.197 211.88 749.877 205.705 759.371 202.463 775.348 197.06 776.506 196.519 776.043 194.976 775.812 194.127 773.728 189.573 771.489 184.864 766.781 175.138 759.988 165.104 753.813 159.083L749.568 154.838 745.477 159.083C743.238 161.399 735.674 169.658 728.65 177.454 721.626 185.327 709.43 198.989 701.48 207.866 693.453 216.743 686.969 224.461 686.969 225.002 686.969 225.928 687.509 225.851 690.288 225.002 692.063 224.461 704.49 220.448 717.844 216.125ZM318.09 196.751C329.745 183.783 342.404 169.735 346.186 165.49 350.045 161.322 354.213 156.536 355.448 154.838L357.687 151.905 355.448 150.053C349.968 145.653 341.786 140.327 335.225 137.085 327.043 132.994 314.23 128.517 313.381 129.443 312.995 129.752 309.059 147.583 304.505 169.041 300.028 190.499 295.628 210.722 294.856 214.041 293.621 219.521 293.621 220.062 294.779 220.756 295.474 221.142 296.246 221.219 296.477 220.911 296.786 220.602 306.512 209.796 318.09 196.751ZM310.294 220.37C318.707 219.29 323.03 218.132 344.256 211.108 357.61 206.708 372.661 201.768 377.678 200.224 385.397 197.754 386.709 197.06 386.709 195.747 386.632 190.113 374.128 168.963 365.56 160.087L360.466 154.761 355.68 159.778C351.743 163.792 332.755 184.941 302.652 218.595 301.263 220.216 300.182 221.528 300.414 221.528 300.568 221.528 305.045 220.988 310.294 220.37ZM710.125 193.586C723.942 178.149 737.913 162.557 741.232 158.929L747.175 152.214 742.389 148.354C732.587 140.713 718.847 133.534 707.192 130.138L703.178 128.98 702.098 131.064C701.557 132.222 700.708 135.232 700.245 137.78 699.782 140.327 695.691 159.778 691.214 180.928 686.737 202.154 683.264 219.984 683.418 220.525 683.65 221.065 684.113 221.528 684.422 221.528 684.807 221.528 696.386 208.947 710.125 193.586ZM283.278 219.213C284.436 218.595 284.59 218.055 284.05 216.665 283.664 215.739 277.18 196.288 269.77 173.518 258.964 140.558 255.877 131.991 254.873 131.991 252.48 131.991 238.895 138.629 232.257 142.951 225.465 147.428 216.202 155.147 214.195 158.003 213.115 159.547 213.501 160.01 224.075 169.272 230.096 174.598 245.302 188.106 257.806 199.452 270.311 210.722 280.885 219.984 281.194 219.984 281.58 219.984 282.506 219.598 283.278 219.213ZM671.84 219.521C672.535 219.29 673.075 218.441 673.075 217.746 673.075 217.051 666.823 197.6 659.258 174.444L645.365 132.377 643.049 132.454C640.039 132.608 628.152 138.474 620.819 143.337 617.809 145.344 612.251 149.589 608.623 152.754L601.985 158.466 604.918 161.399C609.704 166.185 669.524 219.907 670.142 219.984 670.373 219.984 671.145 219.753 671.84 219.521ZM290.997 218.132C290.997 217.978 294.084 203.312 297.867 185.559 307.129 142.025 309.753 128.826 309.213 128.286 308.441 127.591 294.162 125.893 288.681 125.893 280.885 125.816 261.666 128.826 259.967 130.37 259.659 130.601 260.817 135.387 262.515 140.867 266.22 152.908 287.138 217.051 287.678 217.9 287.987 218.441 290.997 218.672 290.997 218.132ZM679.636 217.823C680.099 217.514 684.653 197.291 689.747 172.9 697.852 134.229 698.933 128.44 697.852 128.054 697.158 127.745 692.372 127.128 687.278 126.588 679.713 125.738 676.163 125.738 669.138 126.51 659.876 127.514 649.996 129.443 648.915 130.447 648.529 130.756 651.231 140.173 654.936 151.365 658.641 162.557 664.97 181.854 668.984 194.127 673.075 206.477 676.703 216.974 677.089 217.514 678.015 218.595 678.555 218.672 679.636 217.823ZM352.901 215.353C359.539 214.504 370.423 213.346 377.061 212.729 383.699 212.188 389.488 211.339 390.028 210.799 390.646 210.182 390.569 208.638 389.72 205.164 388.408 199.607 388.099 199.53 380.92 202.231 378.836 203.08 369.342 206.168 360.003 209.178 341.555 214.967 336.692 216.82 339.239 216.897 340.088 216.897 346.263 216.202 352.901 215.353Z" transform="matrix(1 0 0 -1.0012 146 720.274)"/><path d="M727.878 527.808C727.878 526.496 729.268 524.412 729.731 524.952 730.348 525.492 729.345 528.734 728.573 528.734 728.187 528.734 727.878 528.271 727.878 527.808Z" transform="matrix(1 0 0 -1.0012 146 720.274)"/><path d="M0 86.9903C0 77.0331 0.0771875 76.6472 1.92969 74.8719 4.47687 72.4791 4.47687 69.3144 1.92969 67.6162 0 66.3812 0 66.3041 0 53.9541L0 41.5269 2.31562 38.8253C3.62781 37.4359 4.63125 35.8922 4.63125 35.4291 4.63125 34.9659 3.62781 33.5766 2.31562 32.4188L0 30.2575 0 17.9075 0 5.63469 2.62438 2.77875 5.32594 0 496.624 0 988 0 988 48.6281 988 97.2562 494 97.2562 0 97.2562 0 86.9903Z" transform="matrix(1 0 0 -1.0012 146 720.274)"/></g></g></g></g></svg>